<svg width="40" height="40" viewBox="0 0 40 40" fill="none" xmlns="http://www.w3.org/2000/svg">
<path d="M33.3333 3.33334H6.66659C4.99992 3.33334 3.33325 4.83334 3.33325 6.66668V11.6833C3.33325 12.8833 4.04992 13.9167 4.99992 14.5V33.3333C4.99992 35.1667 6.83325 36.6667 8.33325 36.6667H31.6666C33.1666 36.6667 34.9999 35.1667 34.9999 33.3333V14.5C35.9499 13.9167 36.6666 12.8833 36.6666 11.6833V6.66668C36.6666 4.83334 34.9999 3.33334 33.3333 3.33334ZM31.6666 33.3333H8.33325V15H31.6666V33.3333ZM33.3333 11.6667H6.66659V6.66668H33.3333V11.6667Z" fill="#BEC3CE"/>
<path d="M15 20H25V23.3333H15V20Z" fill="#BEC3CE"/>
</svg>
