<svg width="41" height="41" viewBox="0 0 41 41" fill="none" xmlns="http://www.w3.org/2000/svg">
<path d="M40.2696 7.19932C40.2696 7.19932 34.9935 12.4717 33.6083 13.8724C33.5006 13.9973 33.3617 14.0914 33.2057 14.145C33.0497 14.1987 32.8823 14.2099 32.7206 14.1777C32.2515 14.1053 31.7824 14.0581 31.3134 14.0015L27.4444 13.5419C27.2272 11.6785 27.0037 9.85281 26.8148 8.02401C26.7959 7.85089 26.9187 7.61481 27.0477 7.48261C28.647 5.86785 33.1141 1.41074 33.7657 0.759174C32.3491 0.0887186 29.9125 -0.175686 28.0992 0.120196C26.4946 0.368791 24.9637 0.964481 23.6131 1.8657C22.2625 2.76691 21.1249 3.95194 20.2796 5.3381C19.4344 6.72425 18.9018 8.27814 18.719 9.89132C18.5363 11.5045 18.7078 13.1381 19.2216 14.6782C19.3381 15.0402 19.2626 15.2511 19.0044 15.5092C13.1868 21.3104 7.37862 27.1241 1.56729 32.9316C1.37036 33.1234 1.18333 33.3251 1.00694 33.5359C0.615481 34.0246 0.328222 34.5881 0.162857 35.192C-0.00250794 35.7958 -0.0424776 36.4271 0.0454104 37.0469C0.133298 37.6668 0.347183 38.2621 0.673888 38.7962C1.00059 39.3302 1.4332 39.7918 1.94506 40.1524C3.84649 41.4744 6.24217 41.2352 7.94213 39.5386C13.7755 33.7091 19.6089 27.8764 25.4328 22.0375C25.7224 21.7479 25.9522 21.6503 26.3741 21.792C28.2886 22.4468 30.3499 22.544 32.3176 22.0721C33.7628 21.7434 35.128 21.1302 36.3335 20.2681C37.539 19.4061 38.5606 18.3125 39.3387 17.0512C40.1168 15.79 40.6358 14.3864 40.8654 12.9224C41.0949 11.4584 41.0304 9.96331 40.6757 8.52449C40.5781 8.1153 40.4302 7.70925 40.2665 7.19932H40.2696Z" fill="white"/>
</svg>
