<svg width="26" height="30" viewBox="0 0 26 30" fill="none" xmlns="http://www.w3.org/2000/svg">
<path d="M12.9999 12.1113C14.6625 12.1113 15.8888 10.8864 15.8888 9.22239C15.8888 7.55839 14.6625 6.3335 12.9999 6.3335C11.3388 6.3335 10.1111 7.55839 10.1111 9.22239C10.1111 10.8864 11.3388 12.1113 12.9999 12.1113ZM12.9999 13.5557C9.80917 13.5557 7.22217 15.8842 7.22217 18.7557V19.3133H18.7777V18.7557C18.7777 15.8842 16.1907 13.5557 12.9999 13.5557Z" fill="#BEC3CE"/>
<path d="M23.1111 0.555664H2.88889C1.29567 0.555664 0 1.85133 0 3.44455V22.2223C0 23.8156 1.29567 25.1112 2.88889 25.1112H8.66667L13 29.4446L17.3333 25.1112H23.1111C24.7043 25.1112 26 23.8156 26 22.2223V3.44455C26 1.85133 24.7043 0.555664 23.1111 0.555664ZM15.8889 22.2223L13 25.1112L10.1111 22.2223H2.88889V3.44455H23.1111L23.114 22.2223H15.8889Z" fill="#BEC3CE"/>
</svg>
