<svg id="Layer_1" data-name="Layer 1" xmlns="http://www.w3.org/2000/svg" viewBox="0 0 24 24"><defs><style>.cls-1{fill:#fff;opacity:0;}.cls-2,.cls-3{fill:none;stroke-linecap:round;stroke-miterlimit:10;stroke-width:1.5px;}.cls-2{stroke:#030835;}.cls-3{stroke:#27723C;}</style></defs><title>Tickets</title><rect class="cls-1" width="24" height="24"/><g id="File"><path class="cls-2" d="M178.39562,168.42808a5,5,0,0,0-5,5v10a5,5,0,0,0,5,5h6a5,5,0,0,0,5-5V175.8398a5,5,0,0,0-1.46448-3.53555l-2.41175-2.41172a5,5,0,0,0-3.53551-1.46445Z" transform="translate(-169.39562 -166.42808)"/><path class="cls-3" d="M182.66373,172.1435V173.16a2,2,0,0,0,2,2h1.01649" transform="translate(-169.39562 -166.42808)"/><line class="cls-3" x1="9.88231" y1="14.91347" x2="14.11769" y2="14.91347"/></g></svg>