<svg width="33" height="33" viewBox="0 0 33 33" fill="none" xmlns="http://www.w3.org/2000/svg">
<path d="M25.8811 3.36035H6.99926C5.04399 3.36035 3.45892 4.94541 3.45892 6.90069V25.7825C3.45892 27.7378 5.04399 29.3228 6.99926 29.3228H25.8811C27.8363 29.3228 29.4214 27.7378 29.4214 25.7825V6.90069C29.4214 4.94541 27.8363 3.36035 25.8811 3.36035Z" stroke="#BEC3CE" stroke-width="2" stroke-linejoin="round"/>
<path d="M23.5209 8.08057H9.35956C8.7078 8.08057 8.17944 8.60892 8.17944 9.26068V23.422C8.17944 24.0738 8.7078 24.6021 9.35956 24.6021H23.5209C24.1727 24.6021 24.701 24.0738 24.701 23.422V9.26068C24.701 8.60892 24.1727 8.08057 23.5209 8.08057Z" stroke="#BEC3CE" stroke-width="2" stroke-linejoin="round"/>
<path d="M1.09875 10.4409H3.45898M16.4402 3.36023V1V3.36023ZM22.3408 3.36023V1V3.36023ZM10.5397 3.36023V1V3.36023ZM16.4402 31.6829V29.3227V31.6829ZM22.3408 31.6829V29.3227V31.6829ZM10.5397 31.6829V29.3227V31.6829ZM29.4215 16.3415H31.7817H29.4215ZM29.4215 22.242H31.7817H29.4215ZM29.4215 10.4409H31.7817H29.4215ZM1.09875 16.3415H3.45898H1.09875ZM1.09875 22.242H3.45898H1.09875Z" stroke="#BEC3CE" stroke-width="2" stroke-linecap="round" stroke-linejoin="round"/>
</svg>
