<svg width="40" height="40" viewBox="0 0 40 40" fill="none" xmlns="http://www.w3.org/2000/svg">
<path d="M33.3334 3.3335H6.66671C5.00004 3.3335 3.33337 4.8335 3.33337 6.66683V11.6835C3.33337 12.8835 4.05004 13.9168 5.00004 14.5002V33.3335C5.00004 35.1668 6.83337 36.6668 8.33337 36.6668H31.6667C33.1667 36.6668 35 35.1668 35 33.3335V14.5002C35.95 13.9168 36.6667 12.8835 36.6667 11.6835V6.66683C36.6667 4.8335 35 3.3335 33.3334 3.3335ZM31.6667 33.3335H8.33337V15.0002H31.6667V33.3335ZM33.3334 11.6668H6.66671V6.66683H33.3334V11.6668Z" fill="#BEC3CE"/>
<path d="M15 20H25V23.3333H15V20Z" fill="#BEC3CE"/>
</svg>
