<svg width="16" height="17" viewBox="0 0 16 17" fill="none" xmlns="http://www.w3.org/2000/svg">
<path d="M14.4167 0.525391H7.13642L3.32715 4.32911V6.62466H4.43611V5.85393H8.65569V1.63435H14.4167V14.9418H3.32715C3.32715 15.2359 3.44398 15.518 3.65195 15.726C3.85992 15.934 4.14199 16.0508 4.43611 16.0508H14.4167C14.7108 16.0508 14.9929 15.934 15.2009 15.726C15.4088 15.518 15.5257 15.2359 15.5257 14.9418V1.63435C15.5257 1.34023 15.4088 1.05817 15.2009 0.850197C14.9929 0.642227 14.7108 0.525391 14.4167 0.525391V0.525391ZM7.76298 4.96122H4.43611V4.78379L7.59663 1.63435H7.76298V4.96122Z" fill="#FAFAFA"/>
<path d="M5.51152 12.8791C5.45347 12.9288 5.40633 12.99 5.37305 13.0587C5.33977 13.1275 5.32107 13.2025 5.31812 13.2788C5.31517 13.3552 5.32803 13.4313 5.35591 13.5025C5.38379 13.5736 5.42607 13.6383 5.48011 13.6923C5.53414 13.7463 5.59877 13.7886 5.66992 13.8165C5.74107 13.8444 5.81722 13.8572 5.89358 13.8543C5.96995 13.8513 6.04487 13.8326 6.11367 13.7994C6.18246 13.7661 6.24363 13.7189 6.29333 13.6609L9.42614 10.5059L6.2767 7.35647C6.17063 7.26563 6.03418 7.21817 5.89463 7.22356C5.75508 7.22895 5.62271 7.2868 5.52396 7.38555C5.42521 7.4843 5.36736 7.61667 5.36197 7.75622C5.35658 7.89577 5.40405 8.03222 5.49488 8.13829L7.31912 9.95143H0.554479C0.407422 9.95143 0.266388 10.0099 0.162403 10.1138C0.0584181 10.2178 0 10.3589 0 10.5059C0 10.653 0.0584181 10.794 0.162403 10.898C0.266388 11.002 0.407422 11.0604 0.554479 11.0604H7.33575L5.51152 12.8791Z" fill="#FAFAFA"/>
</svg>
