<svg xmlns="http://www.w3.org/2000/svg" width="30" height="28.796" viewBox="0 0 30 28.796">
  <g id="noun-new-message-1970229" transform="translate(-84 -25.199)">
    <path id="Path_9243" data-name="Path 9243" d="M111.245,25.2H86.816A2.822,2.822,0,0,0,84,28.015v16.3a2.822,2.822,0,0,0,2.816,2.816h1.74v4.209a2.625,2.625,0,0,0,1.614,2.437,3.083,3.083,0,0,0,1.013.222,2.5,2.5,0,0,0,1.835-.791l6.076-6.076h12.088A2.822,2.822,0,0,0,114,44.312v-16.3a2.73,2.73,0,0,0-2.753-2.816Zm1.012,19.113a1.054,1.054,0,0,1-1.044,1.044H98.746a.883.883,0,0,0-.633.253l-6.329,6.36a.919.919,0,0,1-.918.19.817.817,0,0,1-.506-.759V46.242a.884.884,0,0,0-.886-.886H86.848A1.054,1.054,0,0,1,85.8,44.312v-16.3a1.054,1.054,0,0,1,1.044-1.044h24.4a1.054,1.054,0,0,1,1.044,1.044v16.3Z"/>
    <path id="Path_9244" data-name="Path 9244" d="M264.673,128.253h-3.607v-3.607a.884.884,0,0,0-.886-.886.906.906,0,0,0-.886.886v3.607h-3.607a.884.884,0,0,0-.886.886.906.906,0,0,0,.886.886h3.607v3.607a.884.884,0,0,0,.886.886.906.906,0,0,0,.886-.886v-3.576h3.607a.884.884,0,0,0,.886-.886.912.912,0,0,0-.886-.918Z" transform="translate(-161.149 -92.992)"/>
  </g>
</svg>
