<svg xmlns="http://www.w3.org/2000/svg" width="30" height="30" viewBox="0 0 30 30">
  <path id="noun-close-4502796" d="M130.21,47.443a12.764,12.764,0,1,0,12.764,12.764A12.764,12.764,0,0,0,130.21,47.443Zm-15,12.764a15,15,0,1,1,15,15A15,15,0,0,1,115.21,60.207Zm10.273-4.727a1.118,1.118,0,0,1,1.581,0l3.146,3.146,3.146-3.146a1.118,1.118,0,0,1,1.581,1.581l-3.146,3.146,3.146,3.146a1.118,1.118,0,0,1-1.581,1.581l-3.146-3.146-3.146,3.146a1.118,1.118,0,1,1-1.581-1.581l3.146-3.146-3.146-3.146A1.118,1.118,0,0,1,125.483,55.48Z" transform="translate(-115.21 -45.207)" fill="#ffcd34" fill-rule="evenodd"/>
</svg>
