<svg xmlns="http://www.w3.org/2000/svg" width="60" height="45.732" viewBox="0 0 60 45.732">
  <g id="noun-pc-3667149" transform="translate(0 0)">
    <path id="Path_9218" data-name="Path 9218" d="M253.933,439.13H236.5a1.2,1.2,0,0,0,0,2.4h17.436a1.2,1.2,0,1,0,0-2.4Z" transform="translate(-220.045 -395.81)" fill="#27723c"/>
    <path id="Path_9219" data-name="Path 9219" d="M173.064,102.2H158.772a3.587,3.587,0,0,0-3.4,2.46h-34.8a3.913,3.913,0,0,0-3.911,3.912v29.352a3.912,3.912,0,0,0,3.912,3.912h34.6v2.5a3.611,3.611,0,0,0,3.6,3.6h14.292a3.611,3.611,0,0,0,3.6-3.6v-38.52a3.605,3.605,0,0,0-3.6-3.612Zm-17.892,37.224h-34.6a1.506,1.506,0,0,1-1.512-1.512v-29.34a1.506,1.506,0,0,1,1.512-1.512h34.6Zm19.093,4.9a1.2,1.2,0,0,1-1.2,1.2H158.773a1.2,1.2,0,0,1-1.2-1.2V105.8a1.2,1.2,0,0,1,1.2-1.2h14.292a1.2,1.2,0,0,1,1.2,1.2Z" transform="translate(-116.664 -102.199)" fill="#27723c"/>
    <path id="Path_9220" data-name="Path 9220" d="M464.12,156.52h-9.5a1.2,1.2,0,1,0,0,2.4h9.5a1.2,1.2,0,0,0,0-2.4Z" transform="translate(-410.119 -149.536)" fill="#27723c"/>
    <path id="Path_9221" data-name="Path 9221" d="M464.12,196.84h-9.5a1.2,1.2,0,1,0,0,2.4h9.5a1.2,1.2,0,0,0,0-2.4Z" transform="translate(-410.119 -184.672)" fill="#27723c"/>
    <path id="Path_9222" data-name="Path 9222" d="M459.4,238.358a1.2,1.2,0,0,0-1.2-1.2h-3.492a1.2,1.2,0,1,0,0,2.4H458.2A1.2,1.2,0,0,0,459.4,238.358Z" transform="translate(-410.198 -219.806)" fill="#27723c"/>
    <path id="Path_9223" data-name="Path 9223" d="M485.844,368.546a2.4,2.4,0,1,1-2.4-2.4,2.4,2.4,0,0,1,2.4,2.4" transform="translate(-434.195 -332.21)" fill="#27723c"/>
  </g>
</svg>
