<svg xmlns="http://www.w3.org/2000/svg" width="30" height="25.39" viewBox="0 0 30 25.39">
  <g id="noun-process-1372543" transform="translate(-94.255 -64.092)">
    <path id="Path_9241" data-name="Path 9241" d="M102.466,85.026h2.519a.985.985,0,0,0,0-1.971h-2.519a6.241,6.241,0,1,1,0-12.481h5.8a.985.985,0,0,0,.8-1.554l-3.18-4.493a.985.985,0,1,0-1.609,1.136l2.079,2.94h-3.9a8.211,8.211,0,0,0,0,16.423Z" fill="#b12121"/>
    <path id="Path_9242" data-name="Path 9242" d="M356.776,140.959h-2.519a.985.985,0,0,0,0,1.971h2.519a6.241,6.241,0,1,1,0,12.481h-5.8a.985.985,0,0,0-.828,1.521l2.825,4.372a.985.985,0,1,0,1.642-1.071l-1.842-2.854h4.007a8.211,8.211,0,0,0,0-16.423Z" transform="translate(-240.733 -72.356)" fill="#b12121"/>
  </g>
</svg>
