<svg width="30" height="32" viewBox="0 0 30 32" fill="none" xmlns="http://www.w3.org/2000/svg">
<path d="M15 0.333344C13.3518 0.333344 11.7407 0.822085 10.3702 1.73776C8.99984 2.65344 7.93173 3.95493 7.301 5.47765C6.67027 7.00036 6.50525 8.67592 6.82679 10.2924C7.14833 11.9089 7.94201 13.3938 9.10744 14.5592C10.2729 15.7247 11.7577 16.5183 13.3742 16.8399C14.9908 17.1614 16.6663 16.9964 18.189 16.3657C19.7117 15.7349 21.0132 14.6668 21.9289 13.2964C22.8446 11.926 23.3333 10.3149 23.3333 8.66667C23.3333 6.45654 22.4554 4.33692 20.8926 2.77412C19.3298 1.21132 17.2101 0.333344 15 0.333344ZM15 13.6667C14.0111 13.6667 13.0444 13.3734 12.2221 12.824C11.3999 12.2746 10.759 11.4937 10.3806 10.5801C10.0022 9.66646 9.90315 8.66113 10.0961 7.69122C10.289 6.72132 10.7652 5.8304 11.4645 5.13114C12.1637 4.43188 13.0546 3.95568 14.0245 3.76275C14.9945 3.56982 15.9998 3.66884 16.9134 4.04728C17.827 4.42572 18.6079 5.06658 19.1573 5.88882C19.7068 6.71107 20 7.67777 20 8.66667C20 9.99276 19.4732 11.2645 18.5355 12.2022C17.5979 13.1399 16.3261 13.6667 15 13.6667ZM30 32V30.3333C30 27.2391 28.7708 24.2717 26.5829 22.0838C24.395 19.8958 21.4275 18.6667 18.3333 18.6667H11.6667C8.57247 18.6667 5.60501 19.8958 3.41709 22.0838C1.22916 24.2717 0 27.2391 0 30.3333V32H3.33333V30.3333C3.33333 28.1232 4.21131 26.0036 5.77411 24.4408C7.33691 22.878 9.45653 22 11.6667 22H18.3333C20.5435 22 22.6631 22.878 24.2259 24.4408C25.7887 26.0036 26.6667 28.1232 26.6667 30.3333V32H30Z" fill="white"/>
</svg>
