<svg width="33" height="33" viewBox="0 0 33 33" fill="none" xmlns="http://www.w3.org/2000/svg">
<path d="M21.5218 30.1307H18.6522C17.8912 30.1307 17.1613 29.8283 16.6231 29.2902C16.085 28.752 15.7827 28.0222 15.7827 27.2611C15.7827 26.5 16.085 25.7702 16.6231 25.232C17.1613 24.6939 17.8912 24.3915 18.6522 24.3915H21.5218V21.522H18.6522C17.1301 21.522 15.6703 22.1266 14.594 23.2029C13.5177 24.2792 12.9131 25.739 12.9131 27.2611C12.9131 28.7832 13.5177 30.243 14.594 31.3193C15.6703 32.3956 17.1301 33.0002 18.6522 33.0002H21.5218V30.1307ZM33 27.2611C33 28.7832 32.3954 30.243 31.3191 31.3193C30.2428 32.3956 28.783 33.0002 27.2609 33.0002H24.3913V30.1307H27.2609C28.022 30.1307 28.7519 29.8283 29.29 29.2902C29.8281 28.752 30.1305 28.0222 30.1305 27.2611C30.1305 26.5 29.8281 25.7702 29.29 25.232C28.7519 24.6939 28.022 24.3915 27.2609 24.3915H24.3913V21.522H27.2609C28.783 21.522 30.2428 22.1266 31.3191 23.2029C32.3954 24.2792 33 25.739 33 27.2611Z" fill="#BEC3CE"/>
<path d="M20.087 25.8264H25.8261V28.6959H20.087V25.8264ZM10.0435 27.2612C10.0463 26.7801 10.0895 26.3002 10.1726 25.8264H4.30435V23.8177C4.30435 20.9481 10.0435 19.3699 12.913 19.3699C13.5624 19.3783 14.2101 19.4382 14.85 19.5492C16.0311 18.9606 17.3325 18.6537 18.6522 18.6525H25.8261V5.73942C25.8238 4.97906 25.5208 4.2505 24.9831 3.71284C24.4454 3.17518 23.7169 2.87213 22.9565 2.86986H16.9591C16.6653 2.03114 16.1182 1.30445 15.3933 0.790308C14.6684 0.276171 13.8017 0 12.913 0C12.0244 0 11.1576 0.276171 10.4328 0.790308C9.70792 1.30445 9.16074 2.03114 8.86696 2.86986H2.86957C2.10921 2.87213 1.38064 3.17518 0.842985 3.71284C0.305328 4.2505 0.00227087 4.97906 0 5.73942L0 25.8264C0.00227087 26.5867 0.305328 27.3153 0.842985 27.853C1.38064 28.3906 2.10921 28.6937 2.86957 28.6959H10.1726C10.0895 28.2221 10.0463 27.7422 10.0435 27.2612ZM12.913 2.86986C13.1968 2.86986 13.4742 2.954 13.7102 3.11166C13.9461 3.26932 14.13 3.4934 14.2386 3.75557C14.3472 4.01774 14.3756 4.30623 14.3203 4.58455C14.2649 4.86287 14.1282 5.11852 13.9276 5.31918C13.7269 5.51984 13.4713 5.65649 13.193 5.71185C12.9146 5.76721 12.6261 5.7388 12.364 5.6302C12.1018 5.52161 11.8777 5.33771 11.7201 5.10176C11.5624 4.86581 11.4783 4.58841 11.4783 4.30464C11.4794 3.92446 11.6309 3.56018 11.8998 3.29135C12.1686 3.02252 12.5329 2.87099 12.913 2.86986V2.86986ZM12.913 8.60899C13.7644 8.60899 14.5966 8.86143 15.3044 9.3344C16.0123 9.80737 16.564 10.4796 16.8897 11.2661C17.2155 12.0526 17.3008 12.9181 17.1347 13.7531C16.9686 14.588 16.5587 15.355 15.9567 15.957C15.3547 16.5589 14.5877 16.9689 13.7528 17.135C12.9178 17.3011 12.0524 17.2158 11.2658 16.89C10.4793 16.5642 9.80708 16.0125 9.33411 15.3047C8.86114 14.5969 8.6087 13.7647 8.6087 12.9133C8.60794 12.3479 8.71876 11.7878 8.93481 11.2652C9.15085 10.7427 9.46788 10.2679 9.86772 9.86802C10.2676 9.46817 10.7424 9.15114 11.2649 8.9351C11.7875 8.71905 12.3476 8.60823 12.913 8.60899V8.60899Z" fill="#BEC3CE"/>
</svg>
