<svg width="32" height="29" viewBox="0 0 32 29" fill="none" xmlns="http://www.w3.org/2000/svg">
<path d="M18.8451 23.8049C17.2988 23.0683 15.9695 21.944 14.9866 20.5413H3.33782V3.6242H28.7134V6.81589C29.8557 7.61699 30.8164 8.64974 31.5329 9.84686V3.6242C31.5307 2.8771 31.2329 2.16125 30.7047 1.63297C30.1764 1.10469 29.4605 0.806919 28.7134 0.804688H3.33782C2.59073 0.806919 1.87487 1.10469 1.34659 1.63297C0.818313 2.16125 0.520542 2.8771 0.518311 3.6242V20.5413C0.520542 21.2884 0.818313 22.0042 1.34659 22.5325C1.87487 23.0608 2.59073 23.3586 3.33782 23.3608H13.2061V26.1803H10.3866V28.9998H21.6647V26.1803H18.8451V23.8049Z" fill="#BEC3CE"/>
<path d="M23.0744 6.44336C21.4014 6.44336 19.7661 6.93944 18.3751 7.86888C16.9841 8.79832 15.8999 10.1194 15.2597 11.665C14.6195 13.2105 14.452 14.9113 14.7784 16.5521C15.1048 18.1929 15.9103 19.7 17.0933 20.883C18.2762 22.0659 19.7834 22.8715 21.4242 23.1979C23.065 23.5243 24.7657 23.3568 26.3113 22.7166C27.8569 22.0764 29.178 20.9922 30.1074 19.6012C31.0368 18.2102 31.5329 16.5748 31.5329 14.9019C31.5333 13.791 31.3148 12.6909 30.8898 11.6645C30.4649 10.6381 29.8418 9.7055 29.0563 8.91998C28.2708 8.13446 27.3382 7.51142 26.3118 7.08647C25.2854 6.66152 24.1853 6.44299 23.0744 6.44336ZM23.0744 20.5409C21.9591 20.5409 20.8688 20.2102 19.9415 19.5906C19.0142 18.9709 18.2914 18.0903 17.8646 17.0599C17.4378 16.0295 17.3261 14.8956 17.5437 13.8018C17.7613 12.7079 18.2984 11.7031 19.087 10.9145C19.8756 10.1259 20.8804 9.58881 21.9743 9.37122C23.0681 9.15364 24.2019 9.26531 25.2323 9.69212C26.2627 10.1189 27.1434 10.8417 27.7631 11.769C28.3827 12.6964 28.7134 13.7866 28.7134 14.9019C28.7115 16.3969 28.1168 17.8301 27.0597 18.8872C26.0026 19.9443 24.5694 20.5391 23.0744 20.5409Z" fill="#BEC3CE"/>
<path d="M23.0744 16.3117C23.853 16.3117 24.4842 15.6805 24.4842 14.9019C24.4842 14.1234 23.853 13.4922 23.0744 13.4922C22.2958 13.4922 21.6646 14.1234 21.6646 14.9019C21.6646 15.6805 22.2958 16.3117 23.0744 16.3117Z" fill="#BEC3CE"/>
</svg>
