<svg width="55" height="28" viewBox="0 0 55 28" fill="none" xmlns="http://www.w3.org/2000/svg">
<path fill-rule="evenodd" clip-rule="evenodd" d="M0 9.33333V4.66667C0 3.42899 0.579462 2.242 1.61091 1.36683C2.64236 0.491665 4.04131 0 5.5 0H49.5C50.9587 0 52.3576 0.491665 53.3891 1.36683C54.4205 2.242 55 3.42899 55 4.66667V9.33333C53.5413 9.33333 52.1424 9.825 51.1109 10.7002C50.0795 11.5753 49.5 12.7623 49.5 14C49.5 15.2377 50.0795 16.4247 51.1109 17.2998C52.1424 18.175 53.5413 18.6667 55 18.6667V23.3333C55 24.571 54.4205 25.758 53.3891 26.6332C52.3576 27.5083 50.9587 28 49.5 28H5.5C4.04131 28 2.64236 27.5083 1.61091 26.6332C0.579462 25.758 0 24.571 0 23.3333V18.6667C1.45869 18.6667 2.85764 18.175 3.88909 17.2998C4.92054 16.4247 5.5 15.2377 5.5 14C5.5 12.7623 4.92054 11.5753 3.88909 10.7002C2.85764 9.825 1.45869 9.33333 0 9.33333ZM8.25 4.66667V23.3333H46.75V4.66667H8.25ZM13.75 9.33333H41.25V18.6667H13.75V9.33333Z" fill="#BEC3CE"/>
</svg>
