<svg width="34" height="34" viewBox="0 0 34 34" fill="none" xmlns="http://www.w3.org/2000/svg">
<path d="M11.8547 6.78566L7.97867 5.49224C7.55272 5.35037 7.09917 5.31175 6.65537 5.37956C6.21157 5.44738 5.79024 5.61968 5.4261 5.88227C5.06196 6.14486 4.76543 6.49022 4.56095 6.8899C4.35647 7.28958 4.24989 7.73213 4.25 8.18107V24.8737C4.24986 25.4686 4.43697 26.0484 4.78481 26.531C5.13266 27.0136 5.62358 27.3745 6.188 27.5625L11.8547 29.4509C12.4359 29.6445 13.0641 29.6445 13.6453 29.4509L20.3547 27.2154C20.9359 27.0218 21.5641 27.0218 22.1453 27.2154L26.0213 28.5074C26.4474 28.6493 26.9011 28.6879 27.345 28.62C27.7889 28.5521 28.2103 28.3797 28.5745 28.117C28.9386 27.8542 29.2351 27.5087 29.4395 27.1088C29.6439 26.7089 29.7503 26.2662 29.75 25.8172V9.12599C29.7502 8.53126 29.5633 7.95154 29.2158 7.46895C28.8682 6.98637 28.3776 6.62539 27.8134 6.43716L22.1468 4.54874C21.5651 4.35485 20.9363 4.35485 20.3547 4.54874L13.6439 6.78424C13.0627 6.97782 12.4344 6.97782 11.8532 6.78424L11.8547 6.78566Z" stroke="#2D3142" stroke-width="2" stroke-linecap="round" stroke-linejoin="round"/>
<path d="M21.25 4.25V26.9167M12.75 7.08333V29.75V7.08333Z" stroke="#2D3142" stroke-width="2" stroke-linejoin="round"/>
</svg>
