<svg width="36" height="22" viewBox="0 0 36 22" fill="none" xmlns="http://www.w3.org/2000/svg">
<path fill-rule="evenodd" clip-rule="evenodd" d="M0.5 7.5V4C0.5 3.07174 0.868749 2.1815 1.52513 1.52513C2.1815 0.868749 3.07174 0.5 4 0.5H32C32.9283 0.5 33.8185 0.868749 34.4749 1.52513C35.1312 2.1815 35.5 3.07174 35.5 4V7.5C34.5717 7.5 33.6815 7.86875 33.0251 8.52513C32.3687 9.1815 32 10.0717 32 11C32 11.9283 32.3687 12.8185 33.0251 13.4749C33.6815 14.1313 34.5717 14.5 35.5 14.5V18C35.5 18.9283 35.1312 19.8185 34.4749 20.4749C33.8185 21.1313 32.9283 21.5 32 21.5H4C3.07174 21.5 2.1815 21.1313 1.52513 20.4749C0.868749 19.8185 0.5 18.9283 0.5 18V14.5C1.42826 14.5 2.3185 14.1313 2.97487 13.4749C3.63125 12.8185 4 11.9283 4 11C4 10.0717 3.63125 9.1815 2.97487 8.52513C2.3185 7.86875 1.42826 7.5 0.5 7.5ZM5.75 4V18H30.25V4H5.75ZM9.25 7.5H26.75V14.5H9.25V7.5Z" fill="#BEC3CE"/>
</svg>
