<svg id="Layer_1" data-name="Layer 1" xmlns="http://www.w3.org/2000/svg" viewBox="0 0 24 24"><defs><style>.cls-1{fill:#fff;opacity:0;}.cls-2,.cls-3{fill:none;stroke-linecap:round;stroke-miterlimit:10;stroke-width:1.5px;}.cls-2{stroke:#ffb531;}.cls-3{stroke:#030835;}</style></defs><title>Education</title><rect class="cls-1" width="24" height="24"/><g id="Education"><path class="cls-2" d="M174.23107,180.05536v2.07281a2.63233,2.63233,0,0,0,1.72393,2.47062l4.527,1.66448a2.63229,2.63229,0,0,0,1.81678,0l4.527-1.66448a2.63233,2.63233,0,0,0,1.72394-2.47062v-2.07435" transform="translate(-169.39041 -166.42497)"/><path class="cls-3" d="M181.38622,179.42423a3.322,3.322,0,0,1-1.09235-.18415l-7.74321-2.68462a1.72586,1.72586,0,0,1,.00046-3.26125l7.74879-2.68555a3.33166,3.33166,0,0,1,2.18332.00047l7.74693,2.68461a1.72586,1.72586,0,0,1-.00047,3.26126l-7.75251,2.686A3.33521,3.33521,0,0,1,181.38622,179.42423Z" transform="translate(-169.39041 -166.42497)"/></g></svg>