<svg id="noun-software-2519404" xmlns="http://www.w3.org/2000/svg" width="60" height="46.047" viewBox="0 0 60 46.047">
  <path id="Path_9245" data-name="Path 9245" d="M112.688,95.2a3.5,3.5,0,0,0-3.488,3.488v39.07a3.5,3.5,0,0,0,3.488,3.488h53.023a3.5,3.5,0,0,0,3.488-3.488V98.687a3.5,3.5,0,0,0-3.488-3.488Zm0,1.4h53.023a2.074,2.074,0,0,1,2.093,2.093v6.279H116.721a.651.651,0,0,0-.087,0,.7.7,0,1,0,.087,1.4H167.8v31.4a2.074,2.074,0,0,1-2.093,2.093H112.688a2.074,2.074,0,0,1-2.093-2.093V98.688a2.074,2.074,0,0,1,2.093-2.093Zm38.983,2.093a2.093,2.093,0,1,0,2.093,2.093A2.1,2.1,0,0,0,151.671,98.687Zm5.625,0a2.093,2.093,0,1,0,2.093,2.093A2.1,2.1,0,0,0,157.3,98.687Zm5.625,0a2.093,2.093,0,1,0,2.093,2.093A2.1,2.1,0,0,0,162.92,98.687Zm-11.25,1.4a.7.7,0,1,1-.7.7A.687.687,0,0,1,151.671,100.083Zm5.625,0a.7.7,0,1,1-.7.7A.688.688,0,0,1,157.3,100.083Zm5.625,0a.7.7,0,1,1-.7.7A.688.688,0,0,1,162.92,100.083Zm-26.642,10.465a.7.7,0,0,0-.567.7v2.049c-.333.118-.663.242-.981.393l-1.439-1.439a.7.7,0,0,0-1,0l-3.946,3.946a.7.7,0,0,0,0,.981l1.461,1.46a10.534,10.534,0,0,0-.414.981h-2.049a.7.7,0,0,0-.7.7V125.9a.7.7,0,0,0,.7.7h2.049a10.458,10.458,0,0,0,.392.981l-1.439,1.439a.7.7,0,0,0,0,.981l3.946,3.946a.7.7,0,0,0,1,0l1.439-1.439a10.479,10.479,0,0,0,.981.414v2.049a.7.7,0,0,0,.7.7h5.581a.7.7,0,0,0,.7-.7v-2.049a10.475,10.475,0,0,0,.981-.414l.567.567.872.872a.7.7,0,0,0,1,0L150.057,130a.7.7,0,0,0,0-.981s-.452-.432-.894-.872l-.567-.567a10.468,10.468,0,0,0,.414-.981h2.049a.7.7,0,0,0,.7-.7v-5.582a.7.7,0,0,0-.7-.7H149.01a10.526,10.526,0,0,0-.414-.981l.567-.567.894-.894a.7.7,0,0,0,0-.981l-3.946-3.946a.7.7,0,0,0-1,0s-.432.452-.872.894l-.567.566c-.321-.151-.645-.295-.981-.414v-2.049a.7.7,0,0,0-.7-.7h-5.581a.735.735,0,0,0-.131,0Zm.828,1.4h4.186v1.809a.7.7,0,0,0,.5.654,9.207,9.207,0,0,1,1.722.719h.676l.066-.065a.3.3,0,0,0,.043-.022.214.214,0,0,0,.022-.022l.022-.021.065-.066.2-.2.611-.61.392-.393,2.965,2.965-.392.392c-.221.221-.444.422-.611.589-.083.083-.146.168-.2.218l-.065.065-.022.022a.218.218,0,0,0-.022.022.313.313,0,0,0-.044.044c-.009.013-.043.065-.043.065l-.022.654.022.022a9.107,9.107,0,0,1,.7,1.722.7.7,0,0,0,.676.5h1.81V125.2h-1.81a.7.7,0,0,0-.676.5,9.123,9.123,0,0,1-.7,1.723v.654l.043.087.044.043a.171.171,0,0,0,.022.022l.022.022.065.065.2.2.611.61.392.392-2.965,2.943c-.155-.155-.2-.179-.392-.37l-.611-.611c-.083-.083-.146-.168-.2-.218-.025-.025-.049-.028-.065-.043l-.022-.022a.3.3,0,0,0-.022-.022.31.31,0,0,0-.043-.043c-.013-.01-.066-.044-.066-.044l-.654-.022-.022.022a9.14,9.14,0,0,1-1.722.7.7.7,0,0,0-.5.675v1.81h-4.186v-1.81a.7.7,0,0,0-.5-.675,9.14,9.14,0,0,1-1.722-.7.7.7,0,0,0-.829.109l-1.264,1.264-2.965-2.943,1.286-1.286a.7.7,0,0,0,.109-.806,9.127,9.127,0,0,1-.7-1.723.7.7,0,0,0-.676-.5h-1.81v-4.186h1.81a.7.7,0,0,0,.676-.5,9.108,9.108,0,0,1,.7-1.722.7.7,0,0,0-.109-.829l-1.286-1.264,2.965-2.965L134.054,115a.7.7,0,0,0,.829.13,9.207,9.207,0,0,1,1.722-.719.7.7,0,0,0,.5-.654Zm2.093,5.581a5.582,5.582,0,1,0,5.582,5.582A5.592,5.592,0,0,0,139.2,117.524Zm0,1.4a4.186,4.186,0,1,1-4.186,4.186A4.176,4.176,0,0,1,139.2,118.92Z" transform="translate(-109.2 -95.199)" fill="#b12121"/>
</svg>
