<svg xmlns="http://www.w3.org/2000/svg" width="30" height="30" viewBox="0 0 30 30">
  <g id="noun-create-1409619" transform="translate(-165.2 -95.2)">
    <path id="Path_9239" data-name="Path 9239" d="M254.8,191.723v1.385a.462.462,0,0,0,.461.461h5.769a.231.231,0,0,1,.231.231v5.769a.462.462,0,0,0,.462.462h1.385a.462.462,0,0,0,.461-.462V193.8a.231.231,0,0,1,.231-.231h5.769a.462.462,0,0,0,.462-.461v-1.385a.462.462,0,0,0-.462-.462H263.8a.231.231,0,0,1-.231-.231v-5.769a.462.462,0,0,0-.461-.461h-1.385a.462.462,0,0,0-.462.461v5.769a.231.231,0,0,1-.231.231h-5.769A.462.462,0,0,0,254.8,191.723Z" transform="translate(-82.215 -82.215)" fill="#21b14a" fill-rule="evenodd"/>
    <path id="Path_9240" data-name="Path 9240" d="M180.2,122.892A12.692,12.692,0,1,0,167.508,110.2,12.692,12.692,0,0,0,180.2,122.892Zm0,2.308a15,15,0,1,1,15-15A15,15,0,0,1,180.2,125.2Z" fill="#21b14a"/>
  </g>
</svg>
