<svg id="Layer_1" data-name="Layer 1" xmlns="http://www.w3.org/2000/svg" viewBox="0 0 24 24"><defs><style>.cls-1{fill:#fff;opacity:0;}.cls-2,.cls-3{fill:none;stroke-linecap:round;stroke-miterlimit:10;stroke-width:1.5px;}.cls-2{stroke:#030835;}.cls-3{stroke:#27723C;}</style></defs><title>Dashboard</title><rect class="cls-1" width="24" height="24"/><g id="Dashboard"><path class="cls-2" d="M179.627,179.84241l-7.25985-3.848a1.8661,1.8661,0,0,1,0-3.29762l7.25985-3.848a3.73223,3.73223,0,0,1,3.49574,0l7.25984,3.848a1.8661,1.8661,0,0,1,0,3.29762l-7.31119,3.89935A3.63077,3.63077,0,0,1,179.627,179.84241Z" transform="translate(-169.37482 -166.41418)"/><path class="cls-3" d="M190.38253,180.834a1.8661,1.8661,0,0,1,0,3.29762l-7.25984,3.848a3.73218,3.73218,0,0,1-3.49574,0l-7.25985-3.848a1.8661,1.8661,0,0,1,0-3.29762" transform="translate(-169.37482 -166.41418)"/></g></svg>