<svg width="41" height="42" viewBox="0 0 41 42" fill="none" xmlns="http://www.w3.org/2000/svg">
<path fill-rule="evenodd" clip-rule="evenodd" d="M6.47376 0C4.75681 0 3.11018 0.663748 1.89612 1.84523C0.682055 3.02671 0 4.62914 0 6.3V35.7C0 37.3709 0.682055 38.9733 1.89612 40.1548C3.11018 41.3363 4.75681 42 6.47376 42H19.4213C21.1382 42 22.7848 41.3363 23.9989 40.1548C25.213 38.9733 25.895 37.3709 25.895 35.7V6.3C25.895 4.62914 25.213 3.02671 23.9989 1.84523C22.7848 0.663748 21.1382 0 19.4213 0H6.47376ZM28.6852 11.1153C29.0899 10.7216 29.6387 10.5004 30.2109 10.5004C30.7831 10.5004 31.3318 10.7216 31.7365 11.1153L40.3682 19.5153C40.7727 19.9091 41 20.4432 41 21C41 21.5568 40.7727 22.0909 40.3682 22.4847L31.7365 30.8847C31.3295 31.2672 30.7844 31.4789 30.2186 31.4741C29.6528 31.4693 29.1116 31.2485 28.7115 30.8591C28.3114 30.4698 28.0845 29.9431 28.0795 29.3924C28.0746 28.8418 28.2921 28.3114 28.6852 27.9153L33.6333 23.1H15.1054C14.5331 23.1 13.9842 22.8787 13.5796 22.4849C13.1749 22.0911 12.9475 21.557 12.9475 21C12.9475 20.443 13.1749 19.9089 13.5796 19.5151C13.9842 19.1212 14.5331 18.9 15.1054 18.9H33.6333L28.6852 14.0847C28.2807 13.6909 28.0534 13.1568 28.0534 12.6C28.0534 12.0432 28.2807 11.5091 28.6852 11.1153Z" fill="#BEC3CE"/>
</svg>
