<svg xmlns="http://www.w3.org/2000/svg" width="24" height="24" viewBox="0 0 24 24">
  <g id="Download" transform="translate(24) rotate(90)">
    <rect id="Rectangle_339" data-name="Rectangle 339" width="24" height="24" fill="#fff" opacity="0"/>
    <g id="Download-2" data-name="Download">
      <path id="Path_356" data-name="Path 356" d="M186.394,175.928a5,5,0,0,1,5,5v.5a5,5,0,0,1-5,5h-10a5,5,0,0,1-5-5v-.5a5,5,0,0,1,5-5" transform="translate(-169.394 -166.428)" fill="none" stroke="#030835" stroke-linecap="round" stroke-linejoin="round" stroke-miterlimit="10" stroke-width="1.5"/>
      <line id="Line_82" data-name="Line 82" y2="9.998" transform="translate(12.008 14.552) rotate(180)" fill="none" stroke="#27723C" stroke-linecap="round" stroke-miterlimit="10" stroke-width="1.5"/>
      <path id="Path_357" data-name="Path 357" d="M184.25,178.977l-2.4,1.847a.753.753,0,0,1-.919,0l-2.389-1.841" transform="translate(193.402 184.98) rotate(180)" fill="none" stroke="#27723C" stroke-linecap="round" stroke-linejoin="round" stroke-width="1.5"/>
    </g>
  </g>
</svg>
