<svg id="Layer_1" data-name="Layer 1" xmlns="http://www.w3.org/2000/svg" viewBox="0 0 24 24"><defs><style>.cls-1{fill:#fff;opacity:0;}.cls-2,.cls-3,.cls-4{fill:none;stroke-miterlimit:10;stroke-width:1.5px;}.cls-2{stroke:#030835;}.cls-3{stroke:#27723C;stroke-linecap:round;}.cls-4{stroke:#01012b;}</style></defs><title>Profile</title><rect class="cls-1" width="24" height="24"/><g id="Profile"><path class="cls-2" d="M184.90008,170.58844c-.97136-1.1661-2.19074-2.16706-3.51485-2.16706s-2.54348,1.001-3.51485,2.16706a4.53643,4.53643,0,0,0,.3,6.103h.00006a4.54641,4.54641,0,0,0,6.42959,0h.00006A4.53642,4.53642,0,0,0,184.90008,170.58844Z" transform="translate(-169.38521 -166.42138)"/><rect class="cls-2" x="1.99998" y="15.30177" width="20" height="6.69823" rx="3.34911"/><path class="cls-3" d="M177.87043,170.58844a4.53642,4.53642,0,0,0,.3,6.103h.00006" transform="translate(-169.38521 -166.42138)"/><path class="cls-3" d="M174.73435,188.42138h13.30177a3.34911,3.34911,0,0,0,3.34911-3.34912h0a3.34911,3.34911,0,0,0-3.34911-3.34912" transform="translate(-169.38521 -166.42138)"/><path class="cls-4" d="M171.38523,185.07226" transform="translate(-169.38521 -166.42138)"/></g></svg>