<svg xmlns="http://www.w3.org/2000/svg" width="59.573" height="45.407" viewBox="0 0 59.573 45.407">
  <g id="noun-pc-3667149" transform="translate(-74.225 -102.199)">
    <path id="Path_9218" data-name="Path 9218" d="M253.8,439.13H236.489a1.191,1.191,0,0,0,0,2.383H253.8a1.191,1.191,0,1,0,0-2.383Z" transform="translate(-145.928 -293.919)"/>
    <path id="Path_9219" data-name="Path 9219" d="M172.663,102.2h-14.19a3.562,3.562,0,0,0-3.372,2.442H120.548a3.885,3.885,0,0,0-3.884,3.885v29.143a3.885,3.885,0,0,0,3.884,3.884H154.9v2.478a3.585,3.585,0,0,0,3.574,3.574h14.19a3.585,3.585,0,0,0,3.574-3.574V105.785a3.58,3.58,0,0,0-3.574-3.586ZM154.9,139.158h-34.35a1.5,1.5,0,0,1-1.5-1.5V108.526a1.5,1.5,0,0,1,1.5-1.5H154.9Zm18.957,4.861a1.2,1.2,0,0,1-1.191,1.191h-14.19a1.2,1.2,0,0,1-1.191-1.191V105.774a1.2,1.2,0,0,1,1.191-1.191h14.19a1.2,1.2,0,0,1,1.191,1.191Z" transform="translate(-42.439 0)"/>
    <path id="Path_9220" data-name="Path 9220" d="M464.044,156.52h-9.437a1.191,1.191,0,1,0,0,2.383h9.437a1.192,1.192,0,0,0,0-2.383Z" transform="translate(-336.202 -47.387)"/>
    <path id="Path_9221" data-name="Path 9221" d="M464.044,196.84h-9.437a1.191,1.191,0,1,0,0,2.383h9.437a1.192,1.192,0,0,0,0-2.383Z" transform="translate(-336.202 -82.559)"/>
    <path id="Path_9222" data-name="Path 9222" d="M459.356,238.349a1.2,1.2,0,0,0-1.191-1.191H454.7a1.191,1.191,0,1,0,0,2.383h3.467A1.2,1.2,0,0,0,459.356,238.349Z" transform="translate(-336.28 -117.73)"/>
    <path id="Path_9223" data-name="Path 9223" d="M485.81,368.529a2.383,2.383,0,1,1-2.383-2.383,2.383,2.383,0,0,1,2.383,2.383" transform="translate(-360.303 -230.252)"/>
  </g>
</svg>
